<svg width="24" height="24" viewBox="0 0 24 24" fill="none" xmlns="http://www.w3.org/2000/svg">
<path d="M12 0C5.383 0 0 5.384 0 12C0 18.616 5.383 24 12 24C18.616 24 24 18.616 24 12C24 5.384 18.616 0 12 0Z" fill="#1C6937"/>
<path d="M9.6398 14.4414L16.0997 8.60233C16.4919 8.24702 17.1086 8.26569 17.4763 8.64625C17.8441 9.02699 17.823 9.62437 17.43 9.9805L10.2804 16.4435C10.0984 16.607 9.86108 16.6957 9.61739 16.6957C9.36141 16.6957 9.11532 16.599 8.9284 16.4198L6.54577 14.1121C6.16573 13.7441 6.16573 13.1465 6.54577 12.7784C6.9258 12.4104 7.54276 12.4104 7.92279 12.7784L9.6398 14.4414Z" fill="white"/>
</svg>
